<svg version="1.1" xmlns="http://www.w3.org/2000/svg" xmlns:xlink="http://www.w3.org/1999/xlink" x="0px" y="0px" width="833.9px"
	 height="621px" viewBox="0 0 833.9 621" style="enable-background:new 0 0 833.9 621;" xml:space="preserve">
<style type="text/css">
	.st0{fill:#A8D42E;}
	.st1{fill:#2670CA;}
	.st2{fill:#A8D42E;stroke:#A8D42E;stroke-linecap:round;stroke-linejoin:round;stroke-miterlimit:10;}
	.st3{fill:#2670CA;stroke:#2670CA;stroke-linecap:round;stroke-linejoin:round;stroke-miterlimit:10;}
</style>
<defs>
</defs>
<g>
	<g>
		<g>
			<path class="st1" d="M216.2,618.2h-46.8l66-103.1l-59.3-93.1c5.3-4.5,15-7.2,24-7.2c17.6,0,27.9,3.9,35.1,15.9l29.5,49l39-64.9
				l51,0.2l-66.1,100.1l64.9,98.6c-5,4.5-13.9,7.2-22.6,7.2c-22,0-30.6-4.5-37.9-15.9L258.6,550L216.2,618.2z"/>
			<path class="st1" d="M491.5,575.6h-73.3L404,618.2h-43.2l72.4-197.5c7.8-3.9,15.9-5.8,23.7-5.8c14.5,0,25.4,7.5,31.5,24.5
				l65.2,178.9h-47.9L491.5,575.6z M480.1,541L455,460.2L429.7,541H480.1z"/>
			<path class="st1" d="M689.9,582.3v35.9H566.2V420.7c7.2-3.9,13.9-5.8,20.9-5.8c14.8,0,24.2,9.7,24.2,23.7v143.8H689.9z"/>
			<path class="st1" d="M833.9,583.7v34.5H702.4V417.6h128.4v34.5h-83.3v46h73.5v34.5h-73.5v51H833.9z"/>
		</g>
		<g>
			<path class="st0" d="M162.1,580.5v37.7H0v-25.7c0-33.1,32.5-52.6,61.4-70.2c23.4-14.3,44.8-27.3,44.8-45.5
				c0-13.6-10.4-22.4-30.5-22.4c-15.3,0-32.8,6.2-51.3,20.8L5.8,442.5c24.7-18.8,53-27.6,77.3-27.6c46.5,0,74.1,22.7,74.1,60.8
				c0,35.1-38,55.9-67.9,73.4c-18.5,10.7-35.1,20.5-38.7,31.5H162.1z"/>
		</g>
	</g>
	<g>
		<path class="st2" d="M118.2,69.5c133-74,214-119,337,60c81.8,119.1,312,124,180-129c216,180-54.6,433.5-205,161
			c-101-183-180-113-266-92c33.8,15.7,86,54,52,132c-29.1,66.7,25.4,108.8,39,117c-49.2-10.5-109-43-65-120
			C212.4,159.6,202.2,108.5,118.2,69.5z"/>
		<path class="st3" d="M309.2,56.6c-32.3-9-64.3,2-98.2,13.6c-3.7,1.3-7.4,2.5-11.2,3.8c2.7,2.8,7,6.7,12.5,10.9
			c36.9,27.7,82.3,27.3,94.4,27.1c18.5-0.4,25.3-3.5,45.7-1.4c14,1.5,25.3,4.5,32.8,6.9C360.1,83.8,335,63.8,309.2,56.6z"/>
		<path class="st3" d="M552.1,185.7c31.9,11.3,62.7,10.9,82.5-1c16.7-10.1,25.5-27.9,26-53.1c0.4-18.6-3.7-40.3-12.1-64.8
			c7,108.3-57.1,116.7-165.7,73.8C501.7,160.6,526,176.5,552.1,185.7z"/>
	</g>
</g>
</svg>
