<svg version="1.1" xmlns="http://www.w3.org/2000/svg" xmlns:xlink="http://www.w3.org/1999/xlink" x="0px" y="0px" width="833.9px"
	 height="206.2px" viewBox="0 0 833.9 206.2" style="enable-background:new 0 0 833.9 206.2;" xml:space="preserve">
<style type="text/css">
	.st0{fill:#A8D42E;}
	.st1{fill:#2670CA;}
</style>
<defs>
</defs>
<g>
	<g>
		<path class="st0" d="M216.2,203.4h-46.8l66-103.1L176.1,7.2c5.3-4.5,15-7.2,24-7.2c17.6,0,27.9,3.9,35.1,15.9l29.5,49l39-64.9
			l51,0.2l-66.1,100.1l64.9,98.6c-5,4.5-13.9,7.2-22.6,7.2c-22,0-30.6-4.5-37.9-15.9l-34.5-55.2L216.2,203.4z"/>
		<path class="st1" d="M491.5,160.8h-73.3L404,203.4h-43.2L433.3,5.8C441.1,1.9,449.2,0,457,0c14.5,0,25.4,7.5,31.5,24.5l65.2,178.9
			h-47.9L491.5,160.8z M480.1,126.2L455,45.4l-25.4,80.8H480.1z"/>
		<path class="st1" d="M689.9,167.4v35.9H566.2V5.8c7.2-3.9,13.9-5.8,20.9-5.8c14.8,0,24.2,9.7,24.2,23.7v143.8H689.9z"/>
		<path class="st1" d="M833.9,168.8v34.5H702.4V2.8h128.4v34.5h-83.3v46h73.5v34.5h-73.5v51H833.9z"/>
	</g>
	<g>
		<path class="st0" d="M162.1,165.7v37.7H0v-25.7c0-33.1,32.5-52.6,61.4-70.2c23.4-14.3,44.8-27.3,44.8-45.5
			c0-13.6-10.4-22.4-30.5-22.4c-15.3,0-32.8,6.2-51.3,20.8L5.8,27.6C30.5,8.8,58.8,0,83.2,0c46.5,0,74.1,22.7,74.1,60.8
			c0,35.1-38,55.9-67.9,73.4c-18.5,10.7-35.1,20.5-38.7,31.5H162.1z"/>
	</g>
</g>
</svg>